<svg xmlns="http://www.w3.org/2000/svg" id="rzdLogo" data-name="rzdLogo" viewBox="0 0 55.12 24.41" width="55.12" height="24.41">
    <path d="M39.12,2.21v.9h7.7a2.5,2.5,0,0,1,1.8.5,2.5,2.5,0,0,1,.5,1.8V13a2.5,2.5,0,0,1-.5,1.8,2.62,2.62,0,0,1-1.8.5h-3.7c-.6,0-1.5,0-1.8-.7a1.73,1.73,0,0,1,.5-1.8l5-6.6h-7.7L36,10.31a3.79,3.79,0,0,0-1,2,3,3,0,0,0,1,2l.8,1h0a8.49,8.49,0,0,0,2.5,2.5,8.8,8.8,0,0,0,3.9.5h3.3c1.9,0,4.8,0,6.7-1.9s1.9-4.7,1.9-5.7V7.61c0-1,0-3.8-1.9-5.7S48.42,0,46.52,0h-5.3a2.38,2.38,0,0,0-1.7.5A2.83,2.83,0,0,0,39.12,2.21Zm-9.2,3.9h7.7l-9.2,12.2h-7.7Zm-29.4.6A2,2,0,0,0,0,8.31v.9h3.1v15.2h6.1V9.21h6c.6,0,1.5,0,1.8.7a1.73,1.73,0,0,1-.5,1.8l-5,6.6h7.7l3.1-4.1a3.79,3.79,0,0,0,1-2,3,3,0,0,0-1-2l-.8-1h0A8.49,8.49,0,0,0,19,6.71a8.8,8.8,0,0,0-3.9-.5H2.22A1.68,1.68,0,0,0,.52,6.71Z" fill="currentColor"/>
</svg>